<svg width="560" height="560" viewBox="0 0 560 560" fill="none" xmlns="http://www.w3.org/2000/svg">
<path d="M123.2 95.6308H443.692V153.354H123.2V95.6308Z" fill="#CC5500"/>
<path d="M123.2 200.738H443.692V258.462H123.2V200.738Z" fill="#CC5500"/>
<path d="M249.846 124.923H316.949V222.277H249.846V124.923Z" fill="#CC5500"/>
<path d="M249.846 328.246H316.949V425.6H249.846V328.246Z" fill="#CC5500"/>
<path d="M123.2 298.954H443.692V356.677H123.2V298.954Z" fill="#CC5500"/>
<path d="M123.2 404.062H443.692V461.785H123.2V404.062Z" fill="#CC5500"/>
<path d="M560 0H393.21V74.9606H560V0Z" fill="#CC5500"/>
<path d="M560 73.1969H483.951V485.921H560V73.1969Z" fill="#CC5500"/>
<path d="M560 485.039H393.21V560H560V485.039Z" fill="#CC5500"/>
<path d="M0 0H166.79V74.9606H0V0Z" fill="#CC5500"/>
<path d="M0 73.1969H76.0494V485.921H0V73.1969Z" fill="#CC5500"/>
<path d="M0 485.039H166.79V560H0V485.039Z" fill="#CC5500"/>
</svg>
